# xmcd
#
# Track frame offsets:
#	150
#	13370
#	23932
#	43190
#	56090
#	72080
#	82692
#	95080
#	107357
#	119075
#	133370
#	146387
#	159105
#	172422
#	186235
#	197890
#	213317
#	224532
#	237555
#	248902
#	259505
#	271365
#	282545
#	298212
#	307627
#	317907
#
# Disc length: 4395 seconds
#
# Revision: 0
# Processed by: cddbd v1.5.2PL0 Copyright (c) Steve Scherf et al.
# Submitted via: EasyCDDAExtractor 12.0.1.1
#
DISCID=9a11291a
DTITLE=Mac Wiseman - The Mac Wiseman Story CD3  (CMH 2001)
DYEAR=1900
DGENRE=Bluegrass
TTITLE0=Don't Let Your Deal Go Down
TTITLE1=Train 45
TTITLE2=Little Rosewood Casket
TTITLE3=Poor Ellen Smith
TTITLE4=Kentucky
TTITLE5=Salty Dog Blues
TTITLE6=Dust On The Bible
TTITLE7=It's Mighty Dark To Travel
TTITLE8=Old Camp Meeting Time
TTITLE9=Streamlined Cannonball
TTITLE10=Red Rocking Chair
TTITLE11=Doin' My Time
TTITLE12=I'm Just Here To Get My Baby Out Of Jail
TTITLE13=Wait For The Light To Shine
TTITLE14=Lonely Mound Of Clay
TTITLE15=Short Life Of Trouble
TTITLE16=Crying Heart Blues
TTITLE17=Don't Give Your Heart To A Rambler
TTITLE18=I'm Using My Bible For A Road Map
TTITLE19=How Mountain Girls Can Love
TTITLE20=Sailor On The Deep Blue Sea
TTITLE21=Light At The River
TTITLE22=Keep On The Sunny Side
TTITLE23=It's Goodbye And So Long To You
TTITLE24=Shenandoah Waltz
TTITLE25=I'll Still Write Your Name In The Sand
EXTD=
EXTT0=
EXTT1=
EXTT2=
EXTT3=
EXTT4=
EXTT5=
EXTT6=
EXTT7=
EXTT8=
EXTT9=
EXTT10=
EXTT11=
EXTT12=
EXTT13=
EXTT14=
EXTT15=
EXTT16=
EXTT17=
EXTT18=
EXTT19=
EXTT20=
EXTT21=
EXTT22=
EXTT23=
EXTT24=
EXTT25=
PLAYORDER=
